<?xml version="1.0" encoding="UTF-8"?>
<svg version="1.1" xmlns="http://www.w3.org/2000/svg" width="1024" height="1024">
<path d="M0 0 C337.92 0 675.84 0 1024 0 C1024 337.92 1024 675.84 1024 1024 C686.08 1024 348.16 1024 0 1024 C0 686.08 0 348.16 0 0 Z " fill="#3C6F46" transform="translate(0,0)"/>
<path d="M0 0 C24.47528676 -0.12032643 24.47528676 -0.12032643 34.9609375 -0.14648438 C42.09739936 -0.16437208 49.23374502 -0.18546408 56.37011719 -0.22631836 C62.1278485 -0.25907146 67.88545507 -0.27688657 73.6432724 -0.28463173 C75.83275056 -0.2901467 78.02222241 -0.30091562 80.21164703 -0.31719017 C102.14881829 -0.47367237 102.14881829 -0.47367237 112 3 C113.68802734 3.56460938 113.68802734 3.56460938 115.41015625 4.140625 C135.64983938 12.60611838 150.10230103 26.48807101 158.78125 46.71484375 C165.73319389 65.45389763 165.19488669 86.87462379 157.234375 105.19140625 C153.49636098 113.2912195 149.04389341 120.38666053 143 127 C142.49082031 127.56589844 141.98164062 128.13179687 141.45703125 128.71484375 C140.125 130.125 140.125 130.125 138 132 C137.34 132 136.68 132 136 132 C136 132.66 136 133.32 136 134 C137.29292969 133.97679687 138.58585938 133.95359375 139.91796875 133.9296875 C165.65940874 133.59715564 186.42890276 139.61010902 206 157 C206.71027344 157.62648438 207.42054688 158.25296875 208.15234375 158.8984375 C223.73053396 173.52034276 233.31367727 195.09649442 234.23828125 216.35546875 C234.85636362 243.08545252 227.7473569 265.82145048 209.3671875 285.625 C192.19459468 302.85426804 169.80745001 311.13675184 145.65247679 311.24978423 C143.54071004 311.24880974 141.42911929 311.23804722 139.31738281 311.22705078 C137.7786866 311.22648532 136.23998985 311.22680585 134.70129395 311.22793579 C130.56159232 311.22850506 126.42200874 311.2168205 122.28233433 311.20278788 C117.9421964 311.19020876 113.6020552 311.18910439 109.26190186 311.18673706 C101.05993762 311.18054326 92.85802728 311.16416112 84.65608668 311.14403808 C73.56098374 311.11741295 62.46586586 311.10668946 51.37073898 311.09503365 C33.91378569 311.07627881 16.45694608 311.03641922 -1 311 C-1 280.64 -1 250.28 -1 219 C28.37 219 57.74 219 88 219 C88.33 217.35 88.66 215.7 89 214 C92.71842024 206.60175904 98.05751212 201.05466282 105.734375 197.86328125 C114.44735439 195.55996971 125.65205998 195.64043447 133.85546875 199.609375 C141.66272172 204.6720017 146.10251319 211.30753956 149 220 C149.765929 231.3269115 149.0840992 241.27183528 141.64453125 250.25 C134.57059529 257.77760881 125.4964432 259.89483873 115.3125 260.4375 C104.69868291 259.97095859 97.54369578 253.77670582 90.5625 246.4375 C89 244 89 244 88 238 C65.23 238 42.46 238 19 238 C19 255.49 19 272.98 19 291 C36.29115227 290.98221721 53.58184508 290.9436002 70.87282372 290.86790943 C78.90320176 290.83340878 86.93341081 290.80792367 94.96386719 290.80444336 C101.97170371 290.80138251 108.9792381 290.78061071 115.98695815 290.73947543 C119.6898975 290.71833374 123.39240945 290.70544597 127.09540939 290.71384621 C150.46002721 290.75775247 173.61737394 289.33676915 192 273 C204.58837693 258.79253922 212.62426989 242.62267579 212.5 223.375 C212.49427979 222.3324707 212.48855957 221.28994141 212.48266602 220.21582031 C212.04776316 201.16209659 204.70132498 185.3420245 191 172 C178.97637416 160.96150317 162.92508464 155.54383343 146.8371582 155.56762695 C145.78216629 155.5574353 144.72717438 155.54724365 143.64021301 155.53674316 C140.19368021 155.50683101 136.74742631 155.49738057 133.30078125 155.48828125 C130.89510693 155.47141843 128.48944135 155.45326605 126.08378601 155.43388367 C119.7825493 155.38655187 113.48134799 155.35663376 107.17999268 155.33044434 C100.7377626 155.30055377 94.29565424 155.25405271 87.85351562 155.20898438 C75.23574349 155.12314268 62.61794174 155.05514753 50 155 C49.79880051 155.62081955 49.59760101 156.2416391 49.39030457 156.88127136 C49.12381607 157.69413101 48.85732758 158.50699066 48.58276367 159.34448242 C48.31968918 160.15092697 48.05661469 160.95737152 47.78556824 161.78825378 C45.75335877 167.50988482 42.20754862 171.68047148 36.8125 174.4375 C29.56600531 177.62481423 21.85822422 178.43401377 14.16796875 176.1640625 C7.34119507 173.03905704 2.10129493 168.51778411 -1.09375 161.6484375 C-3.83222089 153.66123074 -4.50518483 145.56561483 -1 137.75 C3.01085012 130.62337648 9.06889642 125.24714602 17 123 C25.5573585 122.14905819 33.51219394 122.5976168 40.51953125 127.91015625 C46.58788248 133.17576495 46.58788248 133.17576495 48 136 C52.83389299 136.12572145 57.66678888 136.21531065 62.50195312 136.2746582 C64.13884092 136.29945469 65.77562232 136.33330364 67.41210938 136.37719727 C90.01830699 136.96734677 109.58357557 129.39708129 126.3203125 113.84375 C136.6146786 103.04053691 141.60142349 88.94331749 141.5 74.1875 C141.49500488 73.22553711 141.49000977 72.26357422 141.48486328 71.27246094 C141.28908398 63.24956027 139.83702121 57.12878151 136 50 C135.53078125 49.08992188 135.0615625 48.17984375 134.578125 47.2421875 C127.85111832 35.12634213 117.99296153 27.91744563 104.89453125 23.76171875 C99.37520642 22.30926485 94.13620048 21.86187442 88.43408203 21.79467773 C87.3354911 21.77982834 87.3354911 21.77982834 86.21470642 21.76467896 C83.81244046 21.73328573 81.41015478 21.70839502 79.0078125 21.68359375 C77.33486439 21.66300503 75.66192125 21.64200807 73.98898315 21.62062073 C69.59965055 21.56559808 65.21027255 21.51610199 60.82086182 21.46777344 C55.54688586 21.40854882 50.27299234 21.3424305 44.99908447 21.27747345 C36.99944027 21.17971337 28.9997416 21.09068689 21 21 C21 36.18 21 51.36 21 67 C27.496875 67.0309375 27.496875 67.0309375 34.125 67.0625 C35.47996582 67.092229 36.83493164 67.12195801 38.23095703 67.15258789 C44.71127233 67.210068 44.71127233 67.210068 50.04785156 64.04614258 C51.51817271 61.75407528 52.75064707 59.41687406 54 57 C60.123768 51.45798996 67.2296719 48.47404152 75.5 48.68359375 C83.02096989 49.6354665 89.77225114 52.52331072 95 58 C101.08617396 66.45762595 101.57675127 73.77868589 101 84 C99.76835946 90.73227242 95.72012995 96.34276432 90.1953125 100.2890625 C82.59720184 104.82184096 74.60747605 104.76709113 66 104 C59.14401771 101.90701825 53.93553416 96.89158834 50 91 C49.67 89.68 49.34 88.36 49 87 C32.83 87 16.66 87 0 87 C0 58.29 0 29.58 0 0 Z " fill="#FDFDFD" transform="translate(653,234)"/>
<path d="M0 0 C6.93 0 13.86 0 21 0 C21 42.9 21 85.8 21 130 C55.4729879 132.50349687 55.4729879 132.50349687 84.375 122.8125 C90.37985802 116.37872355 92.0973634 108.69513539 92.20532227 100.12011719 C92.21522186 99.43678314 92.22512146 98.7534491 92.23532104 98.04940796 C92.26682044 95.79859846 92.29164752 93.54776789 92.31640625 91.296875 C92.33698577 89.73316917 92.35798251 88.16946878 92.37937927 86.60577393 C92.43449686 82.49589449 92.48395148 78.38596572 92.53222656 74.27600098 C92.58251702 70.07978946 92.63816366 65.88364935 92.69335938 61.6875 C92.80081477 53.45839214 92.90179246 45.22922342 93 37 C100.26 37 107.52 37 115 37 C115.00410889 39.3104834 115.00821777 41.6209668 115.01245117 44.00146484 C115.0297063 51.66505137 115.07430381 59.32830706 115.13209057 66.99168968 C115.16627233 71.63466125 115.19145677 76.27730685 115.19555664 80.92041016 C115.19985859 85.40760508 115.22847725 89.89406579 115.27343178 94.38103104 C115.28634648 96.08644955 115.29073599 97.7919562 115.28615379 99.49741745 C114.99695115 113.15790044 114.99695115 113.15790044 121 125 C127.48158854 130.1078008 135.70084422 129.60202033 143.56640625 129.609375 C144.69751831 129.62500488 145.82863037 129.64063477 146.99401855 129.65673828 C151.1833019 129.70898669 155.37295103 129.72754392 159.5625 129.75 C173.6390625 129.87375 173.6390625 129.87375 188 130 C188 99.31 188 68.62 188 37 C194.93 37 201.86 37 209 37 C209 74.62 209 112.24 209 151 C196.068125 151.061875 183.13625 151.12375 169.8125 151.1875 C165.75428955 151.21481201 161.6960791 151.24212402 157.51489258 151.27026367 C152.4954834 151.28381348 152.4954834 151.28381348 150.13334656 151.28633118 C148.51055928 151.29088795 146.88778109 151.30133322 145.26506042 151.31672668 C133.11860735 151.42602343 120.68498036 151.43249972 109.9375 144.9375 C109.08027344 144.43089844 108.22304688 143.92429687 107.33984375 143.40234375 C106.56769531 142.93957031 105.79554688 142.47679687 105 142 C103.67346834 141.31990001 102.34250497 140.64799894 101 140 C100.23429687 140.58007812 100.23429687 140.58007812 99.453125 141.171875 C72.11981146 160.75105704 27.20651079 151 0 151 C0 101.17 0 51.34 0 0 Z " fill="#FCFDFC" transform="translate(349,393)"/>
<path d="M0 0 C6.6 0 13.2 0 20 0 C19.21625 2.805 18.4325 5.61 17.625 8.5 C12.75386165 26.62633043 9.35797218 46.53642253 18.6640625 63.75 C24.67871388 73.87993917 34.85281503 79.00592139 46 82 C53.30591178 83.18187239 60.55442834 83.1725853 67.94335938 83.20532227 C69.34353922 83.21491613 70.74371625 83.22492706 72.14389038 83.23532104 C75.92426976 83.26221296 79.70466143 83.28330695 83.48508263 83.30332303 C87.44356871 83.32528024 91.40201762 83.35262103 95.36047363 83.37937927 C102.84712229 83.42917515 110.33379174 83.47416226 117.82048082 83.51740164 C126.34773542 83.56688644 134.8749527 83.62176266 143.40217113 83.67708123 C160.93474642 83.79069993 178.46735695 83.89739107 196 84 C196 90.93 196 97.86 196 105 C177.74456858 105.04644411 159.48915767 105.08206376 141.23367977 105.10362434 C132.75594499 105.11390466 124.27824777 105.12790237 115.80053711 105.15087891 C108.40502681 105.17091275 101.00954374 105.18373997 93.61400706 105.18817699 C89.70389436 105.19076757 85.79385947 105.19678759 81.8837719 105.21146011 C78.19102616 105.22520262 74.49838907 105.22918962 70.80562019 105.22621536 C68.82966844 105.22701376 66.85372806 105.237687 64.87780762 105.24884033 C43.66271044 105.20085132 24.11732371 101.11732764 8.1015625 86.26171875 C-2.82728313 74.5000057 -7.4088458 59.44003884 -7.3125 43.6875 C-7.30831055 42.73762207 -7.30412109 41.78774414 -7.29980469 40.80908203 C-7.07997756 26.70038984 -5.03695906 13.20030651 0 0 Z " fill="#FCFDFC" transform="translate(132,439)"/>
<path d="M0 0 C2.31 0 4.62 0 7 0 C7 18.15 7 36.3 7 55 C-18 55 -18 55 -22 53 C-24.65491264 53.31606103 -26.61205246 53.80602623 -29 55 C-30.8776367 55.10641745 -32.75903875 55.14882559 -34.63964844 55.16113281 C-35.82137634 55.17074036 -37.00310425 55.1803479 -38.22064209 55.19024658 C-40.14556488 55.1966214 -40.14556488 55.1966214 -42.109375 55.203125 C-44.08142914 55.21167511 -44.08142914 55.21167511 -46.09332275 55.22039795 C-48.880904 55.23090946 -51.66845641 55.23675053 -54.45605469 55.24023438 C-58.01812153 55.24570699 -61.57980378 55.26970737 -65.14175034 55.29820633 C-68.54761759 55.32138357 -71.95343299 55.32328635 -75.359375 55.328125 C-76.63455994 55.3404718 -77.90974487 55.3528186 -79.22357178 55.36553955 C-81.0150766 55.3610379 -81.0150766 55.3610379 -82.84277344 55.35644531 C-83.88931091 55.36009094 -84.93584839 55.36373657 -86.01409912 55.36749268 C-89.50661907 54.93764736 -91.91123308 53.63516499 -95 52 C-97.16985976 52.2699348 -97.16985976 52.2699348 -99.125 53.3125 C-105.79369409 55.91464246 -113.43341969 56.39248084 -120.125 53.5625 C-121.07375 53.046875 -122.0225 52.53125 -123 52 C-123.99 51.505 -123.99 51.505 -125 51 C-126.68208635 51.97383946 -128.34738161 52.97695052 -130 54 C-135.94170591 55.90033238 -143.22138191 56.06458717 -149 53.625 C-152 52 -152 52 -155 50 C-155.5775 50.639375 -156.155 51.27875 -156.75 51.9375 C-160.46794142 55.34561297 -164.72455557 55.40412374 -169.62109375 55.34765625 C-174.99558845 54.56222106 -178.79509751 51.26669236 -182.4375 47.4375 C-185.61540025 42.47997561 -185.75812369 36.73761796 -185 31 C-182.77941252 25.39110231 -179.36623863 21.79044409 -174 19 C-168.5194782 17.08898368 -163.7782019 16.74765788 -158.0625 16.875 C-157.28326172 16.88402344 -156.50402344 16.89304687 -155.70117188 16.90234375 C-153.80064553 16.92566309 -151.90027992 16.96152414 -150 17 C-149.99589111 17.83249268 -149.99178223 18.66498535 -149.98754883 19.52270508 C-149.96056043 22.61514406 -149.91147084 25.70621973 -149.84741211 28.7980957 C-149.81283954 30.79290866 -149.80375406 32.78811014 -149.79492188 34.78320312 C-149.76591797 36.03681641 -149.73691406 37.29042969 -149.70703125 38.58203125 C-149.6913208 39.73936768 -149.67561035 40.8967041 -149.65942383 42.08911133 C-149.27984813 45.18959583 -149.27984813 45.18959583 -146.59619141 46.8762207 C-144.01742686 47.99245666 -142.34926934 48.40480502 -139.5625 48.375 C-138.48162109 48.38660156 -138.48162109 48.38660156 -137.37890625 48.3984375 C-134.25689124 47.99509856 -134.25689124 47.99509856 -129 45 C-128.67 36.09 -128.34 27.18 -128 18 C-125.69 18 -123.38 18 -121 18 C-120.9906543 18.80219971 -120.98130859 19.60439941 -120.97167969 20.4309082 C-120.91806258 24.05873639 -120.83439702 27.68526292 -120.75 31.3125 C-120.73582031 32.57513672 -120.72164063 33.83777344 -120.70703125 35.13867188 C-120.67480469 36.34716797 -120.64257812 37.55566406 -120.609375 38.80078125 C-120.5779541 40.47394409 -120.5779541 40.47394409 -120.54589844 42.1809082 C-120.25534434 45.09461637 -120.25534434 45.09461637 -118.12792969 46.86474609 C-115.435042 48.301406 -113.54046352 48.36679399 -110.5 48.3125 C-109.5615625 48.30863281 -108.623125 48.30476562 -107.65625 48.30078125 C-104.657878 48.1153858 -104.657878 48.1153858 -101 46 C-100.67 37.09 -100.34 28.18 -100 19 C-97.69 19 -95.38 19 -93 19 C-92.9906543 19.77190674 -92.98130859 20.54381348 -92.97167969 21.33911133 C-92.91805294 24.83089582 -92.83438983 28.32132931 -92.75 31.8125 C-92.73582031 33.02744141 -92.72164063 34.24238281 -92.70703125 35.49414062 C-92.67480469 36.65751953 -92.64257812 37.82089844 -92.609375 39.01953125 C-92.5779541 40.62985229 -92.5779541 40.62985229 -92.54589844 42.27270508 C-92.23689746 45.08593276 -92.23689746 45.08593276 -90.21875 46.85546875 C-87.85006056 48.07734552 -86.52976105 48.35294911 -83.890625 48.29296875 C-83.13652344 48.28330078 -82.38242188 48.27363281 -81.60546875 48.26367188 C-80.43951172 48.2259668 -80.43951172 48.2259668 -79.25 48.1875 C-78.45722656 48.17396484 -77.66445312 48.16042969 -76.84765625 48.14648438 C-74.89814436 48.11125223 -72.94898374 48.05744821 -71 48 C-71.639375 47.21625 -72.27875 46.4325 -72.9375 45.625 C-76.98992152 40.46737261 -76.60182729 35.38605629 -76 29 C-73.58064724 23.98208316 -70.0008269 20.50041345 -65 18 C-63.06640414 17.85148156 -61.12657903 17.77869167 -59.1875 17.75 C-58.14980469 17.72421875 -57.11210937 17.6984375 -56.04296875 17.671875 C-51.91051896 18.11747934 -49.38165382 19.62881325 -46.453125 22.53515625 C-41.73640238 28.52294373 -41.38259564 32.45276398 -42 40 C-43.33207558 43.45128672 -44.40996081 45.40996081 -47 48 C-44.2291017 48.02696009 -41.4584655 48.04681952 -38.6875 48.0625 C-37.50897461 48.07506836 -37.50897461 48.07506836 -36.30664062 48.08789062 C-35.1706543 48.09272461 -35.1706543 48.09272461 -34.01171875 48.09765625 C-33.31522217 48.10289307 -32.61872559 48.10812988 -31.90112305 48.11352539 C-29.77502032 48.06895991 -29.77502032 48.06895991 -27 47 C-27 37.76 -27 28.52 -27 19 C-24.69 19 -22.38 19 -20 19 C-20 28.24 -20 37.48 -20 47 C-13.64390057 49.11869981 -6.68835552 48.60656732 0 49 C0 32.83 0 16.66 0 0 Z " fill="#F9FBF9" transform="translate(318,612)"/>
<path d="M0 0 C6.93 0 13.86 0 21 0 C21 57.09 21 114.18 21 173 C14.07 173 7.14 173 0 173 C0 115.91 0 58.82 0 0 Z " fill="#FEFEFE" transform="translate(592,370)"/>
<path d="M0 0 C2.31 0 4.62 0 7 0 C7.00546844 0.83565239 7.00546844 0.83565239 7.01104736 1.68818665 C7.05281472 7.47964394 7.12211861 13.27030443 7.20751953 19.0612793 C7.23576861 21.22330766 7.25696346 23.38544005 7.27099609 25.54760742 C7.29237096 28.65337541 7.33899343 31.75788732 7.390625 34.86328125 C7.39185364 35.83211746 7.39308228 36.80095367 7.39434814 37.79914856 C7.41406677 38.6998558 7.4337854 39.60056305 7.45410156 40.52856445 C7.46298401 41.32132278 7.47186646 42.11408112 7.48101807 42.93086243 C7.84669494 45.16009232 7.84669494 45.16009232 9.81066895 46.75244141 C13.03189551 48.58801071 16.2147629 48.47978641 19.828125 48.51171875 C20.57713074 48.52966995 21.32613647 48.54762115 22.09783936 48.56611633 C24.48183624 48.62014543 26.8656338 48.65409003 29.25 48.6875 C30.86981936 48.72067975 32.48961244 48.75517003 34.109375 48.79101562 C38.07277266 48.87586716 42.03611197 48.94271289 46 49 C45.93816109 46.99023553 45.87612165 44.98047684 45.81262207 42.97076416 C45.76661687 41.43111444 45.73134671 39.89113434 45.70214844 38.35107422 C45.46851874 33.197695 44.46250076 30.03958422 41 26 C35.69160335 22.1563684 27.39167352 23.6811102 21.25 24.5 C20.5075 24.665 19.765 24.83 19 25 C20.32745763 18.48338983 20.32745763 18.48338983 23 16.5625 C30.52757088 15.15108046 38.13659667 15.29927392 45 19 C49.10738152 22.32460431 51.72247893 26.2112938 52.765625 31.46875 C53.30611357 37.30602657 53.10454239 43.1456259 53 49 C57.95 48.67 62.9 48.34 68 48 C68 32.49 68 16.98 68 1 C70.31 1 72.62 1 75 1 C75.33 16.18 75.66 31.36 76 47 C79.31544299 48.10514766 82.20410111 48.32107631 85.6875 48.5625 C86.86699219 48.64628906 88.04648437 48.73007812 89.26171875 48.81640625 C90.61716797 48.90728516 90.61716797 48.90728516 92 49 C91.98839844 47.80890625 91.97679687 46.6178125 91.96484375 45.390625 C91.86778656 30.24212088 92.37896715 15.13437225 93 0 C95.31 0 97.62 0 100 0 C99.67 18.15 99.34 36.3 99 55 C76 55 76 55 71 54 C69.515 54.495 69.515 54.495 68 55 C66.14027433 55.10327446 64.27709909 55.14852403 62.41455078 55.16113281 C60.69729294 55.17554413 60.69729294 55.17554413 58.94534302 55.19024658 C57.70783295 55.19449646 56.47032288 55.19874634 55.1953125 55.203125 C53.9240451 55.20882507 52.65277771 55.21452515 51.34298706 55.22039795 C48.65131042 55.22985134 45.95974537 55.23674656 43.26806641 55.24023438 C39.82587201 55.24571719 36.38407355 55.26974499 32.94200325 55.29820633 C29.65146977 55.32135463 26.36091601 55.3232837 23.0703125 55.328125 C21.22012009 55.3466452 21.22012009 55.3466452 19.33255005 55.36553955 C18.18140717 55.36253845 17.03026428 55.35953735 15.84423828 55.35644531 C14.32892014 55.36191376 14.32892014 55.36191376 12.7829895 55.36749268 C9.56180892 54.94213704 7.7297002 53.69617287 5 52 C2.2995961 52.64663567 2.2995961 52.64663567 0 54 C-3.00313748 55.50156874 -5.79067522 55.09281204 -9.125 55.0625 C-10.40632813 55.05347656 -11.68765625 55.04445313 -13.0078125 55.03515625 C-14.48894531 55.01775391 -14.48894531 55.01775391 -16 55 C-16.01417969 55.58007812 -16.02835937 56.16015625 -16.04296875 56.7578125 C-16.41676521 62.87999242 -17.48948478 65.79018579 -22 70 C-28.46005663 73.98599239 -34.63579863 74.12696899 -42 74 C-42 72.02 -42 70.04 -42 68 C-40.78763672 67.83564453 -40.78763672 67.83564453 -39.55078125 67.66796875 C-38.48214844 67.50941406 -37.41351563 67.35085938 -36.3125 67.1875 C-35.25675781 67.03667969 -34.20101563 66.88585937 -33.11328125 66.73046875 C-29.83104163 65.96035732 -27.67064411 65.05136432 -25 63 C-24.10407917 59.40080577 -24.10407917 59.40080577 -24 56 C-25.16015625 56.05220703 -25.16015625 56.05220703 -26.34375 56.10546875 C-34.07118754 56.30630562 -40.47028485 56.34394067 -46.375 50.75 C-50.30455881 44.0999774 -50.98432853 37.07880433 -49.53515625 29.6015625 C-47.94843109 23.94944093 -45.83585118 21.29249442 -41 18 C-36.39511739 15.69755869 -29.65935579 16.26102857 -24.79296875 17.61328125 C-19.83006447 20.06770232 -17.71554029 23.97025293 -16 29 C-15.55583964 32.52330885 -15.61608417 35.95638122 -15.75 39.5 C-15.76804687 40.4178125 -15.78609375 41.335625 -15.8046875 42.28125 C-15.85136898 44.52196092 -15.91681478 46.76039799 -16 49 C-14.06183265 48.8858134 -12.12444901 48.75826577 -10.1875 48.625 C-9.10855469 48.55539062 -8.02960938 48.48578125 -6.91796875 48.4140625 C-3.81373814 48.18804267 -3.81373814 48.18804267 -1 46 C-0.52511301 43.948375 -0.52511301 43.948375 -0.56762695 41.55029297 C-0.54783279 40.62948944 -0.52803864 39.70868591 -0.50764465 38.75997925 C-0.50125473 37.76410797 -0.49486481 36.76823669 -0.48828125 35.7421875 C-0.47033005 34.72399933 -0.45237885 33.70581116 -0.43388367 32.6567688 C-0.37958653 29.39622168 -0.34582262 26.13582252 -0.3125 22.875 C-0.27934408 20.66794807 -0.24485606 18.46091571 -0.20898438 16.25390625 C-0.12384925 10.83607019 -0.05558196 5.41821543 0 0 Z " fill="#F8F9F8" transform="translate(471,612)"/>
<path d="M0 0 C4.98704561 3.48285574 9.51754791 8.14165713 11.75 13.875 C12.57963645 21.7083116 12.83733714 29.47864043 7.75 35.875 C3.20115357 40.68254859 -1.04822227 43.50211659 -7.73828125 44.28125 C-20.27479809 44.58858034 -20.27479809 44.58858034 -25.7421875 39.51171875 C-26.48855469 38.70154297 -26.48855469 38.70154297 -27.25 37.875 C-28.013125 37.09125 -28.77625 36.3075 -29.5625 35.5 C-33.60627552 29.20968252 -35.38138675 23.16423303 -33.78125 15.68359375 C-31.74729754 8.52843957 -28.04062517 3.34111464 -21.625 -0.5 C-14.46006827 -3.94978194 -7.02135575 -4.10479259 0 0 Z " fill="#FCFDFC" transform="translate(370.25,330.125)"/>
<path d="M0 0 C2.31 0 4.62 0 7 0 C7.09300645 7.68473708 7.16391952 15.36941521 7.20724869 23.05458832 C7.22805315 26.62383519 7.25623769 30.19269474 7.30175781 33.76171875 C7.345474 37.21120466 7.36919071 40.66031992 7.37950897 44.11006165 C7.39041005 46.05539182 7.42159466 48.00057452 7.45318604 49.94567871 C7.45513745 57.70061115 7.05216653 63.77520295 1.43121338 69.63562012 C-4.03080217 74.42433627 -11.92004589 73.80664195 -18.7578125 73.4765625 C-23.8309546 73.03705215 -27.56093041 71.90457901 -31 68 C-35.27613332 62.42619616 -35.78793041 56.81967356 -35 50 C-34.17740421 44.96272719 -33.1153885 39.97941296 -32 35 C-29.69 35 -27.38 35 -25 35 C-25.875 42.625 -25.875 42.625 -27 46 C-27.12070269 48.31019336 -27.175363 50.6241874 -27.1875 52.9375 C-27.20167969 54.16339844 -27.21585937 55.38929688 -27.23046875 56.65234375 C-27.0130248 59.81080919 -26.85501058 61.47788782 -25 64 C-20.18480841 67.43164107 -13.61088277 66.46641333 -8 66 C-3.59377645 64.51369828 -3.59377645 64.51369828 -1 61 C-0.87994453 59.06028622 -0.82266656 57.11656384 -0.79467773 55.17333984 C-0.77473251 53.95222504 -0.75478729 52.73111023 -0.73423767 51.47299194 C-0.71725344 50.13564177 -0.70037463 48.79829025 -0.68359375 47.4609375 C-0.66302397 46.09615447 -0.64202749 44.73137782 -0.62062073 43.36660767 C-0.56540241 39.77292027 -0.51599213 36.1791754 -0.46777344 32.58538818 C-0.41755663 28.91885254 -0.36187151 25.25240044 -0.30664062 21.5859375 C-0.199062 14.39069574 -0.09761643 7.19538454 0 0 Z " fill="#F9FAF9" transform="translate(404,612)"/>
<path d="M0 0 C3.54136658 1.97210227 6.18042521 4.36085042 8 8 C8.59550215 12.54541514 9.00008181 17.04136227 6.87109375 21.2109375 C3.80879505 25.00083198 0.91388795 27.21377793 -4 28 C-8.44077705 28.13375834 -11.81788225 27.50025934 -15.375 24.75 C-18.96621699 20.98777268 -19.84559754 18.69842701 -20.3125 13.5625 C-19.86908335 8.50755014 -18.23756047 5.5170096 -15.0625 1.625 C-10.17178783 -0.97007176 -5.40177075 -0.97046344 0 0 Z " fill="#FBFCFB" transform="translate(478,374)"/>
<path d="M0 0 C3.90846416 2.01006728 6.33500341 4.96500826 8 9 C8.71951251 13.60153351 8.43337657 17.11657853 6.375 21.3125 C3.02515746 25.1031113 0.13954244 27.63582256 -4.9375 28.5 C-9.95560542 27.68071748 -13.51825508 25.62513958 -16.9375 21.875 C-18.5357153 17.55041743 -18.66370515 13.55112104 -18 9 C-13.89686094 0.94026257 -8.77437757 -1.49468892 0 0 Z " fill="#FCFCFC" transform="translate(435,374)"/>
<path d="M0 0 C13.73076923 0 13.73076923 0 18 3 C19.42662219 5.85324437 19.31033868 7.83454549 19 11 C17 13.875 17 13.875 15 16 C15.639375 16.309375 16.27875 16.61875 16.9375 16.9375 C19 18 19 18 20 19 C20.59063136 26.20570265 20.59063136 26.20570265 18.1875 29.4375 C12.24018104 33.68558497 8.42535771 32 0 32 C0 21.44 0 10.88 0 0 Z " fill="#F6F8F6" transform="translate(348,567)"/>
<path d="M0 0 C2.8100346 1.79363911 4.50940468 3.01880935 6 6 C6.08372659 7.52148326 6.10730027 9.04655778 6.09765625 10.5703125 C6.09443359 11.46621094 6.09121094 12.36210938 6.08789062 13.28515625 C6.07951172 14.22230469 6.07113281 15.15945313 6.0625 16.125 C6.05798828 17.06988281 6.05347656 18.01476562 6.04882812 18.98828125 C6.03702357 21.32558387 6.02055759 23.66276061 6 26 C1.93172134 27.35609289 -1.74629346 27.5298986 -6 27 C-9.15689734 25.39285226 -11.19415756 24.02561766 -13.375 21.25 C-15.01262362 15.35455496 -14.16541426 9.63007708 -12 4 C-8.97421971 -0.53867044 -5.14796728 -1.04185052 0 0 Z " fill="#386B41" transform="translate(442,635)"/>
<path d="M0 0 C1.06059488 7.68931285 1.09928082 15.24506486 1 23 C-3.62901306 25.4109443 -6.93120216 26.55193788 -12.13671875 25.65234375 C-15.90127544 24.3343543 -18.25827981 21.48344038 -20 18 C-20.67895915 13.15029182 -20.52838473 9.89164923 -18 5.625 C-12.48507437 0.79944007 -7.20697149 -0.45043572 0 0 Z " fill="#386B41" transform="translate(160,635)"/>
<path d="M0 0 C3.64314398 2.12516732 5.42598016 4.13906344 7 8 C7.33797952 12.84437312 6.65229503 16.17604838 3.625 20 C-0.55277472 23.18306645 -3.84649147 23.35541438 -9 23 C-13.14613048 21.20962547 -15.20962547 19.14613048 -17 15 C-17.53632889 9.99426368 -17.10708223 6.99482001 -14 3 C-9.67458307 -0.87504814 -5.57713926 -0.82256025 0 0 Z " fill="#FAFBFA" transform="translate(249,400)"/>
<path d="M0 0 C3.07469523 1.70251719 5.40613254 3.81226508 7 7 C7.52999351 10.78566792 7.83021253 14.44856036 5.98828125 17.890625 C3.84136401 20.54687096 2.25877827 21.91374058 -1 23 C-5.25160217 23.40109454 -7.5006973 23.26378256 -11.3125 21.25 C-15.3390786 17.87891094 -15.84716223 16.353706 -16.4375 11.125 C-16.33897037 6.33287732 -14.35822174 4.27826408 -11 1 C-7.51556578 -0.74221711 -3.80112955 -0.58675154 0 0 Z " fill="#FCFDFC" transform="translate(212,400)"/>
<path d="M0 0 C4.1657644 1.7588783 6.17507027 3.86989588 8 8 C8.57947988 11.89079347 8.17197685 13.6626608 6.375 17.1875 C3.6999062 20.35537423 1.92816991 21.69061003 -2 23 C-7.29885917 22.90703756 -10.25507094 21.74492906 -14 18 C-16.01936053 15.33811567 -16.00046022 14.02485181 -15.9375 10.625 C-14.76861104 6.10529603 -13.23428701 4.31317206 -10 1 C-6.80401935 -0.59799033 -3.47677244 -0.36773555 0 0 Z " fill="#FAFBFA" transform="translate(760,562)"/>
<path d="M0 0 C3.0717718 1.71077974 5.40485654 3.80971307 7 7 C7.37766377 12.00404498 7.11200434 14.99885156 4 19 C0.20558509 22.39110399 -2.6389678 22.56102298 -7.5859375 22.4296875 C-11.25566441 21.77649986 -12.84144922 19.92448816 -15 17 C-16.5547669 13.89046621 -16.28644437 11.43733239 -16 8 C-12.08231615 0.84009503 -7.94027678 -1.36621457 0 0 Z " fill="#376B41" transform="translate(775,451)"/>
<path d="M0 0 C3.4203866 1.17013226 3.91540482 1.87310723 6 5 C6.68118539 10.48908693 6.60842192 15.46571864 4.5625 20.625 C1.06242256 23.86897422 -2.2179452 25.03415753 -7 25 C-10.68324348 22.96246105 -12.43988276 20.84288619 -14 17 C-14.65695554 12.40762811 -15.27614917 7.27548658 -12.9375 3.10546875 C-8.92341717 -0.67954957 -5.12841812 -0.57901495 0 0 Z " fill="#376B40" transform="translate(263,636)"/>
<path d="M0 0 C2.31 0 4.62 0 7 0 C7 18.15 7 36.3 7 55 C4.69 55 2.38 55 0 55 C0 36.85 0 18.7 0 0 Z " fill="#F9FAF9" transform="translate(337,612)"/>
<path d="M0 0 C1.98 0 3.96 0 6 0 C6.26216309 0.79172607 6.52432617 1.58345215 6.79443359 2.39916992 C7.77351435 5.35351686 8.75397366 8.30740174 9.73535156 11.26098633 C10.36629119 13.16127053 10.99565669 15.06207715 11.625 16.96289062 C12.22441406 18.7659668 12.22441406 18.7659668 12.8359375 20.60546875 C13.20251465 21.71043701 13.5690918 22.81540527 13.94677734 23.95385742 C14.88735141 26.67419648 15.90439882 29.33894495 17 32 C15.35 32 13.7 32 12 32 C10.68 29.03 9.36 26.06 8 23 C4.37 22.67 0.74 22.34 -3 22 C-3.309375 23.464375 -3.61875 24.92875 -3.9375 26.4375 C-4.875 30.875 -4.875 30.875 -6 32 C-7.65 32 -9.3 32 -11 32 C-7.37 21.44 -3.74 10.88 0 0 Z " fill="#F3F6F3" transform="translate(395,567)"/>
<path d="M0 0 C1.98 0 3.96 0 6 0 C7.48454192 4.22729911 8.96169065 8.45714511 10.4375 12.6875 C11.06881836 14.48477539 11.06881836 14.48477539 11.71289062 16.31835938 C12.11572266 17.47529297 12.51855469 18.63222656 12.93359375 19.82421875 C13.30540771 20.88729248 13.67722168 21.95036621 14.06030273 23.0456543 C14.90258503 25.69373381 15.52039412 28.26602549 16 31 C14.35 30.67 12.7 30.34 11 30 C10.01 27.03 9.02 24.06 8 21 C4.04 21 0.08 21 -4 21 C-4.144375 22.27875 -4.28875 23.5575 -4.4375 24.875 C-4.70642746 27.25692894 -4.92226346 28.84452691 -6 31 C-7.65 31 -9.3 31 -11 31 C-7.9829024 20.39330908 -4.08782647 10.23104883 0 0 Z " fill="#F6F9F6" transform="translate(506,568)"/>
<path d="M0 0 C2.87381108 2.01778225 4.59253414 3.47200301 5.515625 6.93359375 C5.70225187 9.17735776 5.61626715 10.83213824 5 13 C2.11756811 16.29420787 0.25851556 17.76884408 -4.0625 18.5625 C-7.67781108 17.87020639 -9.38108416 16.54408967 -12 14 C-13.55024464 10.89951072 -13.28992015 8.42105782 -13 5 C-9.17716577 -0.86167915 -6.79405476 -1.61214859 0 0 Z " fill="#376A40" transform="translate(731,302)"/>
<path d="M0 0 C3.375 2.0625 3.375 2.0625 6 5 C6.77152986 9.32056721 6.52747866 11.19119939 4.125 14.875 C1.6528747 17.3471253 0.6962282 17.90505979 -2.75 18.375 C-7.24132722 17.85676994 -9.01304516 16.34254471 -12 13 C-12.77152986 8.67943279 -12.52747866 6.80880061 -10.125 3.125 C-6.80605027 -0.19394973 -4.65258252 -0.53683644 0 0 Z " fill="#366A40" transform="translate(680,375)"/>
<path d="M0 0 C1.65 0 3.3 0 5 0 C7.31 4.29 9.62 8.58 12 13 C12.51949219 12.0615625 13.03898437 11.123125 13.57421875 10.15625 C14.27766914 8.936936 14.98215026 7.71821625 15.6875 6.5 C16.02716797 5.87996094 16.36683594 5.25992188 16.71679688 4.62109375 C17.76171875 2.84375 17.76171875 2.84375 20 0 C22.76953125 -0.40625 22.76953125 -0.40625 25 0 C24.46375 0.94875 23.9275 1.8975 23.375 2.875 C23.01535156 3.52082031 22.65570313 4.16664063 22.28515625 4.83203125 C21 7 21 7 19.43359375 9.19921875 C14.59613145 16.25142282 14.02434396 22.55264617 14 31 C12.68 31 11.36 31 10 31 C10.03222656 30.175 10.06445312 29.35 10.09765625 28.5 C9.98486987 17.27148961 5.79955256 10.3144329 0 1 C0 0.67 0 0.34 0 0 Z " fill="#F6F9F6" transform="translate(421,568)"/>
<path d="M0 0 C7.92 0 15.84 0 24 0 C24 0.99 24 1.98 24 3 C20.7 3 17.4 3 14 3 C14.33 12.24 14.66 21.48 15 31 C13.35 31 11.7 31 10 31 C10 21.76 10 12.52 10 3 C6.7 3 3.4 3 0 3 C0 2.01 0 1.02 0 0 Z " fill="#FCFCFC" transform="translate(533,568)"/>
<path d="M0 0 C7.92 0 15.84 0 24 0 C24 0.99 24 1.98 24 3 C20.7 3 17.4 3 14 3 C14.33 12.24 14.66 21.48 15 31 C13.35 31 11.7 31 10 31 C10 21.76 10 12.52 10 3 C6.7 3 3.4 3 0 3 C0 2.01 0 1.02 0 0 Z " fill="#FBFCFB" transform="translate(460,568)"/>
<path d="M0 0 C2 1.625 2 1.625 3 4 C2.77962372 7.67293796 2.63033454 9.36966546 0 12 C-6.05240175 12.55021834 -6.05240175 12.55021834 -8.9375 10.875 C-10.50422245 8.11019567 -10.38976435 6.11811483 -10 3 C-7.72375139 -1.01690931 -4.20725277 -0.5259066 0 0 Z " fill="#34683D" transform="translate(363,345)"/>
<path d="M0 0 C7.42857143 -0.28571429 7.42857143 -0.28571429 11 2 C11.48309179 8.40096618 11.48309179 8.40096618 9.4375 10.9375 C6.19917389 12.34907805 3.49186021 12.20145347 0 12 C0 8.04 0 4.08 0 0 Z " fill="#34673C" transform="translate(352,584)"/>
<path d="M0 0 C6.8359375 -0.1953125 6.8359375 -0.1953125 9 0 C9.66 0.66 10.32 1.32 11 2 C10.67028521 5.29714793 10.3773161 6.6226839 8 9 C5.34462628 9.56520003 2.70855287 9.73788198 0 10 C0 6.7 0 3.4 0 0 Z " fill="#3F7048" transform="translate(352,571)"/>
<path d="M0 0 C2.11044382 3.16566573 2.75552077 5.51197415 3.625 9.1875 C3.88539063 10.27417969 4.14578125 11.36085938 4.4140625 12.48046875 C4.60742188 13.31191406 4.80078125 14.14335938 5 15 C2.03 15 -0.94 15 -4 15 C-2.91266548 9.87399439 -1.77362508 4.94081272 0 0 Z " fill="#306338" transform="translate(508,571)"/>
<path d="M0 0 C2.57075841 3.01447835 3.52207066 5.35979771 4.1875 9.25 C4.34605469 10.14203125 4.50460937 11.0340625 4.66796875 11.953125 C4.77753906 12.62859375 4.88710938 13.3040625 5 14 C2.03 14 -0.94 14 -4 14 C-3.52188823 12.22888156 -3.0424722 10.45811517 -2.5625 8.6875 C-2.29566406 7.70136719 -2.02882813 6.71523438 -1.75390625 5.69921875 C-1.21920575 3.78482474 -0.62855462 1.88566385 0 0 Z " fill="#2A5E32" transform="translate(397,572)"/>
<path d="M0 0 C0.6875 2.3125 0.6875 2.3125 1 5 C-0.0625 6.875 -0.0625 6.875 -2 8 C-5.1875 7.6875 -5.1875 7.6875 -8 7 C-8.6875 4.6875 -8.6875 4.6875 -9 2 C-6.73607469 -1.99516231 -4.01344788 -0.98106504 0 0 Z " fill="#EFF3EF" transform="translate(201,676)"/>
<path d="M0 0 C2.375 0.6875 2.375 0.6875 3.375 1.6875 C3.5625 4.125 3.5625 4.125 3.375 6.6875 C2.715 7.3475 2.055 8.0075 1.375 8.6875 C-4.19318182 8.11931818 -4.19318182 8.11931818 -5.625 6.6875 C-5.875 4.25 -5.875 4.25 -5.625 1.6875 C-2.625 -0.3125 -2.625 -0.3125 0 0 Z " fill="#F5F8F5" transform="translate(186.625,675.3125)"/>
<path d="M0 0 C1 1 1 1 1.1875 3.4375 C1 6 1 6 -1 8 C-3.5 8.25 -3.5 8.25 -6 8 C-6.66 7.34 -7.32 6.68 -8 6 C-7.75 2.9375 -7.75 2.9375 -7 0 C-4.31633121 -1.3418344 -2.84719317 -0.73004953 0 0 Z " fill="#F2F5F2" transform="translate(152,615)"/>
<path d="M0 0 C2.625 0.375 2.625 0.375 5 1 C5.625 3.875 5.625 3.875 6 7 C4 9 4 9 1.5 9.25 C-1 9 -1 9 -3 7 C-2.67028521 3.70285207 -2.3773161 2.3773161 0 0 Z " fill="#F2F5F2" transform="translate(299,614)"/>
<path d="M0 0 C3 0.125 3 0.125 4 1.125 C4.1875 3.5625 4.1875 3.5625 4 6.125 C2 8.125 2 8.125 -0.5 8.375 C-3 8.125 -3 8.125 -5 6.125 C-4.27477017 0.17811542 -4.27477017 0.17811542 0 0 Z " fill="#F7F9F8" transform="translate(263,614.875)"/>
<path d="M0 0 C3 0.125 3 0.125 4 1.125 C4.1875 3.5625 4.1875 3.5625 4 6.125 C2 8.125 2 8.125 -0.5 8.375 C-3 8.125 -3 8.125 -5 6.125 C-4.27477017 0.17811542 -4.27477017 0.17811542 0 0 Z " fill="#F9FAF9" transform="translate(252,614.875)"/>
<path d="M0 0 C3 0.125 3 0.125 4 1.125 C4.1875 3.5625 4.1875 3.5625 4 6.125 C2 8.125 2 8.125 -0.5 8.375 C-3 8.125 -3 8.125 -5 6.125 C-4.27477017 0.17811542 -4.27477017 0.17811542 0 0 Z " fill="#F6F8F6" transform="translate(222,614.875)"/>
<path d="M0 0 C4.55555556 0.55555556 4.55555556 0.55555556 6 2 C6.04080783 3.99958364 6.04254356 6.00045254 6 8 C3.125 8.625 3.125 8.625 0 9 C-2 7 -2 7 -2.25 4.5 C-2 2 -2 2 0 0 Z " fill="#F4F6F4" transform="translate(158,614)"/>
<path d="M0 0 C2.5625 0.1875 2.5625 0.1875 4.5625 2.1875 C4.00694444 6.74305556 4.00694444 6.74305556 2.5625 8.1875 C0.125 8.375 0.125 8.375 -2.4375 8.1875 C-3.0975 7.5275 -3.7575 6.8675 -4.4375 6.1875 C-3.71780303 0.28598485 -3.71780303 0.28598485 0 0 Z " fill="#FAFBF9" transform="translate(289.4375,614.8125)"/>
<path d="M0 0 C0.66 0.33 1.32 0.66 2 1 C1.67 1.33 1.34 1.66 1 2 C0.95936168 3.66617115 0.957279 5.33388095 1 7 C3.475 7.99 3.475 7.99 6 9 C6 9.33 6 9.66 6 10 C2.28400809 10.20086443 1.22791555 10.1519437 -2 8 C-2.66 8.66 -3.32 9.32 -4 10 C-7.5 10.25 -7.5 10.25 -11 10 C-13 8 -13 8 -13.125 4.875 C-13.08375 3.92625 -13.0425 2.9775 -13 2 C-12.67 2 -12.34 2 -12 2 C-11.34 3.98 -10.68 5.96 -10 8 C-8.35 8 -6.7 8 -5 8 C-4.731875 7.05125 -4.46375 6.1025 -4.1875 5.125 C-3 2 -3 2 0 0 Z " fill="#1D5827" transform="translate(156,614)"/>
<path d="M0 0 C0.33 0 0.66 0 1 0 C1.33 2.31 1.66 4.62 2 7 C2.33 7 2.66 7 3 7 C3 11.62 3 16.24 3 21 C1.35 21.66 -0.3 22.32 -2 23 C-2 22.34 -2 21.68 -2 21 C-1.01 20.34 -0.02 19.68 1 19 C0.83628906 18.49984375 0.67257813 17.9996875 0.50390625 17.484375 C-0.1878911 14.0736532 -0.10504665 10.71264243 -0.0625 7.25 C-0.05798828 6.55261719 -0.05347656 5.85523438 -0.04882812 5.13671875 C-0.0371002 3.42444197 -0.01916653 1.71220967 0 0 Z " fill="#42724A" transform="translate(158,637)"/>
<path d="M0 0 C2.31 0 4.62 0 7 0 C7 0.33 7 0.66 7 1 C5.35 1 3.7 1 2 1 C2 3.31 2 5.62 2 8 C5.465 7.505 5.465 7.505 9 7 C8.67 7.66 8.34 8.32 8 9 C5.35139573 9.59355614 2.70802678 9.74209269 0 10 C0 6.7 0 3.4 0 0 Z " fill="#255B2C" transform="translate(352,571)"/>
<path d="M0 0 C1.41377341 2.63904371 2.37240135 5.07120629 3 8 C0.69 8 -1.62 8 -4 8 C-2.66666667 5.33333333 -1.33333333 2.66666667 0 0 Z " fill="#3F7147" transform="translate(508,576)"/>
<path d="M0 0 C2.5654594 2.5654594 2.54046087 4.47686668 3 8 C1.35 8 -0.3 8 -2 8 C-2 6.02 -2 4.04 -2 2 C-1.34 2 -0.68 2 0 2 C0 1.34 0 0.68 0 0 Z " fill="#407349" transform="translate(397,576)"/>
<path d="M0 0 C0.66 0.33 1.32 0.66 2 1 C1.67 1.99 1.34 2.98 1 4 C4.3 4 7.6 4 11 4 C11 4.33 11 4.66 11 5 C7.37 5.33 3.74 5.66 0 6 C-0.33 4.35 -0.66 2.7 -1 1 C-0.67 0.67 -0.34 0.34 0 0 Z " fill="#5C8562" transform="translate(459,567)"/>
</svg>
